# xmcd CD database file
#
# Track frame offsets:
#	150
#	45470
#	83422
#	120990
#	175027
#	208740
#	253984
#	296252
#
# Disc length: 4177 seconds
#
# Revision: 0
# Processed by: cddbd v1.4PL0 Copyright (c) Steve Scherf et al.
# Submitted via: CDex 1.50
#
DISCID=62104f08
DTITLE=Hal Galper Trio - Live at Vartan Jazz
DYEAR=1994
DGENRE=Jazz
TTITLE0=My Romance
TTITLE1=Holiday for Strings
TTITLE2=Misty
TTITLE3=Bye-Bye Blackbird
TTITLE4=More or Less Four
TTITLE5=Ghost of a Chance
TTITLE6=Whisper Not
TTITLE7=Cotton Tail
EXTD=YEAR: 1994
EXTT0=
EXTT1=
EXTT2=
EXTT3=
EXTT4=
EXTT5=
EXTT6=
EXTT7=
PLAYORDER=
